<?xml version="1.0" standalone="no"?>
<!DOCTYPE svg PUBLIC "-//W3C//DTD SVG 1.1//EN" "http://www.w3.org/Graphics/SVG/1.1/DTD/svg11.dtd" >
<svg xmlns="http://www.w3.org/2000/svg" xmlns:xlink="http://www.w3.org/1999/xlink" version="1.1">
<metadata></metadata>
<defs>
<font id="gentona_bookbold" horiz-adv-x="1402" >
<font-face units-per-em="2048" ascent="1638" descent="-410" />
<missing-glyph horiz-adv-x="409" />
<glyph unicode="&#xfb01;" horiz-adv-x="1296" d="M23 721v268h137v31q0 199 92 289t297 90q90 0 227 -29l-26 -217q-131 4 -140 4q-72 0 -97.5 -33.5t-25.5 -103.5v-31h691v-989h-328v721h-363v-721h-327v721h-137zM836 1278q0 80 53 123t131 43t131 -43t53 -123t-53 -124t-131 -44t-131 44t-53 124z" />
<glyph unicode="&#xfb02;" horiz-adv-x="1273" d="M23 721v268h137v31q0 199 92 289t297 90q86 0 297 -45v28h328v-1382h-328v1149q-133 8 -236 8q-72 0 -97.5 -33.5t-25.5 -103.5v-31h244v-268h-244v-721h-327v721h-137z" />
<glyph horiz-adv-x="0" />
<glyph unicode="&#xd;" horiz-adv-x="681" />
<glyph unicode=" "  horiz-adv-x="409" />
<glyph unicode="&#x09;" horiz-adv-x="409" />
<glyph unicode="&#xa0;" horiz-adv-x="409" />
<glyph unicode="!" horiz-adv-x="536" d="M94 1249h348l-47 -803h-254zM115 141.5q0 65.5 43 109.5t110.5 44t110.5 -44t43 -109.5t-43 -110.5t-110.5 -45t-110.5 45t-43 110.5z" />
<glyph unicode="&#x22;" horiz-adv-x="845" d="M143 797v524h293l-74 -524h-219zM475 797v524h293l-74 -524h-219z" />
<glyph unicode="#" horiz-adv-x="1449" d="M72 211l45 238h207l47 229h-205l45 240h207l41 208h256l-41 -208h239l43 208h256l-43 -208h215l-45 -240h-217l-45 -229h213l-45 -238h-215l-41 -211h-258l43 211h-239l-43 -211h-256l40 211h-204zM582 449h239l45 229h-239z" />
<glyph unicode="$" horiz-adv-x="1128" d="M47 139l105 234q250 -143 428 -144q137 0 137 86q0 43 -53.5 70t-229.5 82q-188 57 -262 140t-74 214q0 133 89 217t251 99v118h211v-127q149 -18 350 -92l-73 -227q-266 92 -396 92q-55 0 -86.5 -22.5t-31.5 -57.5q0 -43 47 -66.5t233 -76.5q182 -53 261 -134t79 -218 q0 -143 -100.5 -234.5t-282.5 -105.5v-113h-211v123q-207 33 -391 143z" />
<glyph unicode="%" horiz-adv-x="1794" d="M63 883q1 387 345 387q342 0 342 -387q0 -381 -342 -381q-344 0 -345 381zM276 883q0 -98 29 -144.5t103 -46.5q72 0 100.5 46t28.5 145q0 102 -29 149t-100 47q-74 0 -103 -47t-29 -149zM453 0l702 1249h182l-702 -1249h-182zM1044 365q1 387 345 387q342 0 342 -387 q0 -383 -342 -383q-344 0 -345 383zM1257 365q0 -100 30 -146.5t101.5 -46.5t100.5 47t29 146q0 102 -29 149t-100 47q-74 0 -103 -47t-29 -149z" />
<glyph unicode="&#x26;" horiz-adv-x="1372" d="M74 356q0 100 58 172t198 144q-125 125 -125 280q0 152 111.5 235t312.5 83q168 0 269 -84t101 -223q0 -92 -57 -177.5t-170 -144.5l191 -139q18 27 54 84t44 69l211 -131q-66 -117 -103 -174l168 -125l-149 -223l-178 137q-86 -86 -178.5 -121.5t-215.5 -35.5 q-264 0 -403 94t-139 280zM393 397q0 -80 65.5 -123t157.5 -43q109 0 189 68l-297 229q-115 -63 -115 -131zM496 940q0 -76 92 -158q166 68 166 158q0 121 -125 121q-55 0 -94 -33t-39 -88z" />
<glyph unicode="'" horiz-adv-x="514" d="M143 797v524h293l-74 -524h-219z" />
<glyph unicode="(" horiz-adv-x="702" d="M129 493.5q0 483.5 326 860.5l200 -109q-236 -379 -235 -751q0 -375 235 -750l-200 -111q-326 377 -326 860.5z" />
<glyph unicode=")" horiz-adv-x="686" d="M37 -256q236 375 235 750q1 372 -235 751l201 109q328 -381 327.5 -860.5t-327.5 -860.5z" />
<glyph unicode="*" horiz-adv-x="921" d="M76 924l49 149l229 -57l21 233h170l18 -235l234 59l47 -149l-219 -99l139 -202l-119 -103l-184 189l-187 -189l-120 103l139 202z" />
<glyph unicode="+" horiz-adv-x="1032" d="M92 379v233h307v308h232v-308h309v-231l-309 -2v-305h-232v305h-307z" />
<glyph unicode="," horiz-adv-x="575" d="M90 -182q111 88 146 178q-59 16 -94.5 64.5t-35.5 111.5q0 80 51.5 132t133.5 52t134 -57t52 -143q0 -113 -84 -231.5t-227 -200.5z" />
<glyph unicode="-" horiz-adv-x="837" d="M117 422v287h604v-287h-604z" />
<glyph unicode="." horiz-adv-x="569" d="M100 172q0 80 51.5 132t133.5 52t133 -52t51 -132t-51 -133t-133 -53t-133.5 53t-51.5 133z" />
<glyph unicode="/" horiz-adv-x="931" d="M25 -426l544 1767h277l-551 -1767h-270z" />
<glyph unicode="0" horiz-adv-x="1280" d="M70 623q0 315 143 481t428 166t427 -166t142 -481q0 -313 -142 -477t-427 -164t-428 163.5t-143 477.5zM408 623q0 -176 53 -259t180 -83t179 82.5t52 259.5q0 180 -52 264t-179 84q-129 0 -181 -84t-52 -264z" />
<glyph unicode="1" horiz-adv-x="1042" d="M47 1034q211 74 408 215h262v-970h256v-279h-869v279h285v610q-127 -35 -278 -49z" />
<glyph unicode="2" horiz-adv-x="1101" d="M33 1118q334 152 549 152q205 0 325.5 -115t120.5 -307q0 -84 -37 -159t-120 -150.5t-161.5 -131t-213.5 -141.5q164 12 235 13h309v-279h-979v236q55 45 142.5 112.5t134.5 105.5t111.5 91t99.5 88t70.5 75t50 72.5t14.5 61.5q0 72 -44 110.5t-118 38.5 q-150 0 -399 -104z" />
<glyph unicode="3" horiz-adv-x="1144" d="M33 115l92 225q217 -96 444 -96q190 0 191 129q0 137 -266 137h-175v244h175q129 0 186 25.5t57 86.5q0 68 -50 106t-136 38q-160 0 -408 -84l-69 219q283 123 522 123q195 0 320.5 -97.5t125.5 -255.5q0 -102 -51 -172.5t-133 -101.5q219 -86 219 -274 q0 -182 -132 -283.5t-359 -101.5q-299 0 -553 133z" />
<glyph unicode="4" horiz-adv-x="1267" d="M35 475l686 774h328v-741h178v-281h-178v-227h-328v227h-670zM375 508h346v385q-41 -53 -96 -117l-129 -145q-41 -47 -121 -123z" />
<glyph unicode="5" horiz-adv-x="1161" d="M33 115l92 241q217 -96 424 -96q96 0 161.5 45t65.5 123q0 70 -50 114t-136 44q-98 0 -203 -82l-268 39l43 706h878v-278h-594l-20 -250q113 78 272 78q184 0 289 -102.5t105 -282.5q0 -203 -141.5 -317.5t-354.5 -114.5q-309 0 -563 133z" />
<glyph unicode="6" horiz-adv-x="1193" d="M70 565q0 326 175 515.5t462 189.5q198 0 391 -82l-80 -232q-180 45 -295 45q-276 -2 -324 -299q137 106 344 107q178 0 289 -106.5t111 -278.5q0 -205 -133 -323.5t-369 -118.5q-274 0 -422.5 155.5t-148.5 427.5zM399 477q39 -231 242 -231q84 0 137 52t53 140 q0 74 -53 118t-141 44q-150 0 -238 -123z" />
<glyph unicode="7" horiz-adv-x="1021" d="M29 971v278h970v-248q-141 -205 -263 -474t-191 -527h-389q211 600 483 971h-610z" />
<glyph unicode="8" horiz-adv-x="1187" d="M41 356q0 197 240 301q-186 102 -187 267q0 166 135.5 256t380.5 90q233 0 356.5 -86t123.5 -244q-1 -172 -218 -258q141 -59 208 -134t67 -192q0 -178 -142.5 -276t-390.5 -98q-299 0 -436 95t-137 279zM360 381q0 -72 61 -111t163 -39q96 0 152.5 38t56.5 102 q0 59 -61.5 100t-223.5 96q-147 -70 -148 -186zM416 930q0 -55 47 -91t170 -77q154 57 153 172q0 57 -52 92t-138 35q-82 0 -131 -36t-49 -95z" />
<glyph unicode="9" horiz-adv-x="1193" d="M51 829q0 205 134 323t374 118q270 0 410.5 -154.5t140.5 -429.5q0 -350 -157.5 -527t-454.5 -177q-206 0 -396 88l80 229q184 -49 299 -49q135 2 207 72.5t90 214.5q-123 -104 -327 -105q-178 0 -289 111.5t-111 285.5zM362 813q0 -74 53.5 -118t141.5 -44 q123 0 223 115q-29 240 -221 240q-88 0 -142.5 -51.5t-54.5 -141.5z" />
<glyph unicode=":" horiz-adv-x="569" d="M100 172q0 80 51.5 132t133.5 52t133 -52t51 -132t-51 -133t-133 -53t-133.5 53t-51.5 133zM100 788.5q0 79.5 51.5 132t133.5 52.5t133 -52.5t51 -132t-51 -133t-133 -53.5t-133.5 53.5t-51.5 133z" />
<glyph unicode=";" horiz-adv-x="575" d="M90 -182q111 88 146 178q-59 16 -94.5 64.5t-35.5 111.5q0 80 51.5 132t133.5 52t134 -57t52 -143q0 -113 -84 -231.5t-227 -200.5zM100 786.5q0 79.5 51.5 133t133.5 53.5t133 -53.5t51 -133t-51 -132t-133 -52.5t-133.5 52.5t-51.5 132z" />
<glyph unicode="&#x3c;" horiz-adv-x="851" d="M66 524l542 441l146 -177l-262 -215l-72 -49q4 -4 74 -51l260 -215l-144 -172z" />
<glyph unicode="=" horiz-adv-x="1011" d="M92 231v203h828v-203h-828zM92 575v201h828v-201h-828z" />
<glyph unicode="&#x3e;" horiz-adv-x="854" d="M98 258l260 215l74 51q-12 8 -35.5 24.5t-36.5 24.5l-262 213l146 179l542 -441l-544 -438z" />
<glyph unicode="?" horiz-adv-x="1105" d="M43 1118q176 80 301 116t248 36q203 0 325.5 -109.5t122.5 -281.5q0 -145 -112.5 -243.5t-315.5 -139.5l6 -101h-262l-47 303q215 6 301 42t86 102q0 72 -45 111.5t-119 39.5q-145 0 -399 -106zM336 139.5q0 65.5 43 110.5t110.5 45t111.5 -45t44 -110.5t-44 -109.5 t-111.5 -44t-110.5 44t-43 109.5z" />
<glyph unicode="@" horiz-adv-x="1810" d="M70 420q0 379 243.5 614.5t622.5 235.5q365 0 585 -211t220 -551q-2 -133 -34 -233.5t-77 -154.5t-106.5 -87t-108.5 -42t-98 -9q-195 0 -246 131q-80 -76 -145.5 -103.5t-165.5 -27.5q-324 0 -324 444q0 449 332 448q154 0 276 -116v100h281v-577q0 -88 15.5 -117 t52.5 -29q31 0 61.5 14.5t65 50.5t57 115.5t25.5 192.5q0 289 -179.5 462t-486.5 173q-324 0 -524.5 -200t-200.5 -523q0 -313 183.5 -494.5t490.5 -181.5q256 0 506 98l45 -110q-231 -127 -551 -127q-367 0 -591 224t-224 591zM711 426q0 -125 36.5 -175t116.5 -50 q90 0 180 73v7v274q-74 84 -174 84q-80 0 -119.5 -48t-39.5 -165z" />
<glyph unicode="A" horiz-adv-x="1423" d="M18 0l467 1249h455l465 -1249h-356l-70 199h-533l-69 -199h-359zM551 502h321l-124 358q-29 90 -35 115q-6 -18 -18.5 -56t-18.5 -59z" />
<glyph unicode="B" horiz-adv-x="1234" d="M119 0v1249h495q231 0 357.5 -91t126.5 -259q0 -176 -189 -240q270 -68 271 -303q0 -170 -145.5 -263t-413.5 -93h-502zM453 276h178q96 0 149.5 32t53.5 91q0 113 -181 113h-200v-236zM453 770h200q129 0 129 98q0 104 -168 105h-161v-203z" />
<glyph unicode="C" horiz-adv-x="1253" d="M70 623q0 309 168 478t469 169q250 0 467 -113l-101 -250q-221 63 -350 64q-315 0 -315 -348q0 -154 80.5 -248t213.5 -94q179 0 408 92l109 -248q-258 -143 -533 -143q-287 0 -451.5 167.5t-164.5 473.5z" />
<glyph unicode="D" horiz-adv-x="1345" d="M119 0v1249h442q336 0 525.5 -170t189.5 -456q0 -283 -191.5 -453t-523.5 -170h-442zM453 293h108q377 0 377 330q0 172 -91 252.5t-286 80.5h-108v-663z" />
<glyph unicode="E" horiz-adv-x="1146" d="M119 0v1249h921v-303h-587v-188h501v-287h-501v-174h604v-297h-938z" />
<glyph unicode="F" horiz-adv-x="1077" d="M119 0v1249h905v-303h-571v-254h491v-286h-491v-406h-334z" />
<glyph unicode="G" horiz-adv-x="1378" d="M70 623q0 291 171 469t451 178q287 0 541 -113l-84 -248q-256 70 -426 70q-143 0 -229 -98.5t-86 -257.5q0 -168 75.5 -257.5t212.5 -89.5q176 0 303 48v125h-319v262h608v-574q-311 -155 -602 -155h-4q-285 0 -448.5 167.5t-163.5 473.5z" />
<glyph unicode="H" horiz-adv-x="1376" d="M119 0v1249h334v-469h471v469h333v-1249h-333v477h-471v-477h-334z" />
<glyph unicode="I" horiz-adv-x="571" d="M119 0v1249h334v-1249h-334z" />
<glyph unicode="J" horiz-adv-x="993" d="M23 92l75 242q160 -49 267 -49q168 0 167 211v753h334v-753q0 -268 -100 -391t-324 -123q-195 0 -419 110z" />
<glyph unicode="K" horiz-adv-x="1320" d="M119 0v1249h334v-553l467 553h360v-22l-449 -535l469 -669v-23h-376l-310 430l-161 -192v-238h-334z" />
<glyph unicode="L" horiz-adv-x="1064" d="M119 0v1249h334v-946h557v-303h-891z" />
<glyph unicode="M" horiz-adv-x="1712" d="M113 0l49 1249h373l290 -680q16 -43 31 -94q14 51 31 94l291 680h372l49 -1249h-335l-15 659v58l-293 -717h-200l-291 717v-49l-16 -668h-336z" />
<glyph unicode="N" d="M119 0v1249h303l528 -712v712h334v-1249h-303l-528 705v-705h-334z" />
<glyph unicode="O" d="M70 623q0 309 166.5 478t465.5 169q297 0 464 -169t167 -478q0 -307 -167 -474t-464 -167q-299 0 -465.5 166.5t-166.5 474.5zM408 623q0 -168 76.5 -255t217.5 -87q139 0 216 87t77 255q0 172 -76.5 260t-216.5 88q-141 0 -217.5 -88t-76.5 -260z" />
<glyph unicode="P" horiz-adv-x="1212" d="M119 0v1249h499q264 0 406.5 -126t142.5 -359q0 -229 -139 -353t-395 -124h-180v-287h-334zM453 569h178q102 0 157.5 50.5t55.5 144.5q0 96 -59.5 147.5t-168.5 51.5h-163v-394z" />
<glyph unicode="Q" horiz-adv-x="1372" d="M70 623q0 311 159.5 479t456.5 168t457 -168t160 -479q0 -309 -160 -475t-457 -166t-456.5 165.5t-159.5 475.5zM408 623q0 -342 278.5 -342t278.5 342q0 348 -278.5 348t-278.5 -348zM528 -268l52 192q186 -47 310 -62.5t312 -15.5v-258q-330 1 -674 144z" />
<glyph unicode="R" horiz-adv-x="1245" d="M119 0v1249h518q264 0 407.5 -121.5t143.5 -345.5q0 -274 -238 -379l279 -376v-27h-357l-249 348h-170v-348h-334zM453 608h188q104 0 160.5 45t56.5 129q0 86 -56.5 133.5t-160.5 47.5h-188v-355z" />
<glyph unicode="S" horiz-adv-x="1191" d="M47 152l125 260q264 -145 446 -146q115 0 115 84q0 41 -48 66.5t-226 79.5q-356 106 -357 399q0 166 115 270.5t322 104.5q272 0 540 -119l-98 -244q-254 94 -406 94q-55 0 -93 -21.5t-38 -59.5q0 -43 55.5 -72t260.5 -98q190 -66 263 -150t73 -240q0 -174 -121 -276 t-338 -102q-127 0 -296 47t-294 123z" />
<glyph unicode="T" horiz-adv-x="1179" d="M37 946v303h1106v-303h-387v-946h-334v946h-385z" />
<glyph unicode="U" horiz-adv-x="1357" d="M109 596v653h333v-653q0 -315 236 -315q238 0 237 315v653h334v-653q0 -311 -141 -462.5t-430 -151.5q-287 0 -428 151.5t-141 462.5z" />
<glyph unicode="V" horiz-adv-x="1374" d="M25 1249h370l254 -784q14 -43 39 -129q16 66 37 129l270 784h355l-478 -1249h-370z" />
<glyph unicode="W" horiz-adv-x="1904" d="M39 1249h350l172 -743q14 -72 25 -162q2 14 26 162l160 743h361l159 -743q10 -59 25 -156q10 88 24 156l175 743h350l-328 -1249h-395l-156 571q-20 106 -35 193q-14 -86 -34 -193l-156 -571h-395z" />
<glyph unicode="X" horiz-adv-x="1343" d="M23 0l393 629l-389 620h372l236 -348q25 -41 37 -59q6 10 19.5 30.5t17.5 28.5l235 348h373l-389 -620l393 -629h-365l-247 371l-37 57q-6 -10 -18.5 -28.5t-18.5 -28.5l-250 -371h-362z" />
<glyph unicode="Y" horiz-adv-x="1306" d="M18 1249h351l209 -393q49 -92 75 -158q27 66 76 158l209 393h350l-469 -856v-393h-332v393z" />
<glyph unicode="Z" horiz-adv-x="1239" d="M82 0v244l641 710q-180 -8 -270 -8h-324v303h1028v-260l-596 -696q147 10 258 10h346v-303h-1083z" />
<glyph unicode="[" horiz-adv-x="798" d="M176 -365v1717h582v-252h-285v-1215h285v-250h-582z" />
<glyph unicode="\" horiz-adv-x="931" d="M90 1341h277l544 -1767h-268z" />
<glyph unicode="]" horiz-adv-x="798" d="M47 -115h285v1215h-285v252h582v-1717h-582v250z" />
<glyph unicode="^" horiz-adv-x="1034" d="M78 688l340 633h200l340 -633h-262l-118 236q-41 78 -60 137h-2q-18 -59 -59 -137l-119 -236h-260z" />
<glyph unicode="_" horiz-adv-x="1001" d="M111 -76h780v-231h-780v231z" />
<glyph unicode="`" horiz-adv-x="1013" d="M256 1286v66l205 143l264 -338l-80 -84q-231 96 -389 213z" />
<glyph unicode="a" horiz-adv-x="1077" d="M49 293q0 307 418 307h197q0 86 -31 121t-117 35q-122 0 -321 -43l-50 221q285 74 433 74q215 0 310 -96.5t95 -311.5v-600h-319v117q-131 -135 -289 -135q-164 0 -245 71.5t-81 239.5zM348 332q0 -53 36 -85t97 -32q100 0 183 86v125h-154q-88 0 -125 -17.5t-37 -76.5z " />
<glyph unicode="b" horiz-adv-x="1173" d="M100 0v1321h328v-463q143 150 315 150q184 0 277.5 -122t93.5 -382q0 -262 -111.5 -392t-281.5 -130q-104 0 -162.5 29.5t-130.5 99.5v-111h-328zM428 356q41 -55 83 -80.5t105 -25.5q176 0 177 254q0 231 -168 231h-2q-112 0 -195 -112v-267z" />
<glyph unicode="c" horiz-adv-x="1007" d="M59 489q0 250 131.5 384.5t348.5 134.5q221 0 405 -109l-90 -207q-129 55 -270 56q-96 0 -149.5 -67t-53.5 -192q0 -119 52 -183t149 -64h4q154 0 297 75l96 -186q-102 -80 -203.5 -114.5t-240.5 -34.5q-207 0 -341.5 133t-134.5 374z" />
<glyph unicode="d" horiz-adv-x="1175" d="M59 504q0 258 97.5 381t275.5 123q186 0 316 -136v449h327v-1321h-327v111q-72 -70 -130.5 -99.5t-164.5 -29.5q-170 0 -282 130t-112 392zM381 504q0 -254 178 -254q66 0 108 25.5t81 80.5v267q-83 112 -197 112h-2q-168 0 -168 -231z" />
<glyph unicode="e" horiz-adv-x="1083" d="M59 487q0 254 133.5 387.5t368.5 133.5q213 0 336 -122t125 -354q0 -66 -8 -133h-639q33 -163 196 -163h2q181 0 351 90l92 -185q-212 -159 -454 -159h-3q-233 0 -366.5 130t-133.5 375zM373 594h368q-12 186 -180 186q-161 0 -188 -186z" />
<glyph unicode="f" horiz-adv-x="757" d="M23 721v268h129v31q0 197 96 288t301 91q107 0 213 -23l-23 -223q-94 4 -129 4q-74 0 -102.5 -35t-28.5 -102v-31h252v-268h-252v-721h-327v721h-129z" />
<glyph unicode="g" horiz-adv-x="1163" d="M59 518q0 489 373 490q162 0 313 -129v110h328v-817q0 -276 -125 -402t-377 -126t-436 84l43 223q233 -59 348 -59q1 -1 2 -1q113 0 165 63q52 64 52 218v6q-61 -76 -126.5 -105.5t-180.5 -29.5q-176 0 -277.5 121t-101.5 354zM381 518q0 -223 178 -223q66 0 106.5 25.5 t79.5 82.5v220q-83 112 -194 112h-2q-86 0 -127 -49t-41 -168z" />
<glyph unicode="h" horiz-adv-x="1159" d="M100 0v1321h328v-483q152 170 326 170q160 0 235.5 -90.5t75.5 -288.5v-629h-328v516q0 94 -23.5 130t-90.5 36q-104 0 -195 -115v-567h-328z" />
<glyph unicode="i" horiz-adv-x="550" d="M92 1278q0 80 53.5 123t131 43t131 -43t53.5 -123t-53.5 -124t-131 -44t-131 44t-53.5 124zM113 0v989h327v-989h-327z" />
<glyph unicode="j" horiz-adv-x="550" d="M-18 -143q80 43 104.5 98t24.5 164v870h327v-870q0 -203 -87 -317.5t-304 -161.5zM88 1278q0 80 53.5 123t131 43t131 -43t53.5 -123t-53.5 -124t-131 -44t-131 44t-53.5 124z" />
<glyph unicode="k" horiz-adv-x="1142" d="M100 0v1321h328v-676l322 344h366v-22l-375 -400l383 -544v-23h-366l-232 326l-98 -109v-217h-328z" />
<glyph unicode="l" horiz-adv-x="528" d="M100 0v1321h328v-1321h-328z" />
<glyph unicode="m" horiz-adv-x="1732" d="M100 0v989h328v-131q139 150 295 150q221 -4 283 -168q160 166 327 166q154 0 229.5 -90.5t75.5 -286.5v-629h-327v537q0 88 -23.5 126.5t-81.5 38.5q-82 0 -170 -100v-602h-327v537q0 165 -110 165h-1q-84 0 -170 -106v-596h-328z" />
<glyph unicode="n" horiz-adv-x="1159" d="M100 0v989h328v-129q164 147 326 148q160 0 235.5 -90.5t75.5 -288.5v-629h-328v537q0 94 -23.5 129.5t-90.5 35.5q-104 0 -195 -112v-590h-328z" />
<glyph unicode="o" horiz-adv-x="1148" d="M59 489q0 248 135 383.5t379 135.5q246 0 381.5 -135.5t135.5 -383.5q0 -242 -135.5 -374.5t-381.5 -132.5q-244 0 -379 133t-135 374zM381 489q0 -133 48 -190t144 -57q98 0 146.5 57t48.5 190q0 139 -48 199t-147 60q-96 0 -144 -60.5t-48 -198.5z" />
<glyph unicode="p" horiz-adv-x="1173" d="M100 -315v1304h328v-108q156 127 315 127q184 0 277.5 -122t93.5 -382q0 -262 -111.5 -392t-281.5 -130q-104 0 -163.5 29.5t-129.5 97.5v-424h-328zM428 354q41 -55 83 -79.5t105 -24.5q176 0 177 254q0 231 -168 231h-2q-110 0 -195 -110v-271z" />
<glyph unicode="q" horiz-adv-x="1173" d="M59 504q0 260 94.5 382t278.5 122q162 0 313 -127v108h328v-1304h-328v424q-70 -68 -129 -97.5t-163 -29.5q-170 0 -282 130t-112 392zM383 504q0 -254 176 -254q110 0 186 104v271q-87 110 -194 110h-2q-166 0 -166 -231z" />
<glyph unicode="r" horiz-adv-x="835" d="M100 0v989h328v-182q104 201 264 201q68 0 123 -7l-22 -329q-49 4 -117 4q-98 0 -158.5 -40t-89.5 -142v-494h-328z" />
<glyph unicode="s" horiz-adv-x="976" d="M57 98l78 219q248 -92 369 -92q82 0 82 49q0 10 -4 19.5t-14.5 16.5t-21.5 12.5t-32.5 12.5t-39 13t-50.5 15.5t-59 17.5q-270 84 -271 291q0 158 92.5 248t262.5 90q210 0 446 -78l-80 -225q-221 59 -344 59q-70 0 -70 -55q0 -12 5.5 -22.5t16.5 -20t23.5 -15.5t37 -13 t44 -12t56.5 -14.5t63 -17.5q150 -41 208 -101.5t58 -185.5q0 -160 -105.5 -243.5t-307.5 -83.5q-209 0 -443 116z" />
<glyph unicode="t" horiz-adv-x="804" d="M20 721v268h140v219h327v-219h242v-268h-242v-344q0 -70 27 -100.5t96 -30.5q78 0 133 4l31 -197q-117 -67 -282 -67h-5q-174 0 -250.5 87t-76.5 289v359h-140z" />
<glyph unicode="u" horiz-adv-x="1165" d="M94 362v627h328v-543q0 -94 23.5 -130.5t91.5 -36.5q106 0 196 114v596h328v-989h-328v117q-150 -98 -207 -117q-51 -18 -110 -18q-160 0 -241 92t-81 288z" />
<glyph unicode="v" horiz-adv-x="1157" d="M20 989h326l186 -506q8 -23 46 -153q4 14 20 70.5t27 82.5l206 506h326l-405 -989h-346z" />
<glyph unicode="w" horiz-adv-x="1579" d="M23 989h311l145 -545q12 -74 17 -122q8 61 24 122l156 545h227l156 -545q16 -72 24 -137q2 66 19 137l143 545h314l-267 -989h-368l-133 532l-134 -532h-368z" />
<glyph unicode="x" horiz-adv-x="1103" d="M16 0l314 496l-312 493h349l155 -239q10 -20 31 -52q10 18 31 52l153 239h348l-311 -493l316 -496h-342l-164 242q-20 33 -31 51q-20 -31 -31 -51l-166 -242h-340z" />
<glyph unicode="y" horiz-adv-x="1134" d="M2 987h336l174 -452l49 -158q104 215 223 612l344 -2q-6 -16 -30.5 -88t-31.5 -91.5t-29.5 -84t-32 -89t-31 -80.5t-32.5 -84t-30.5 -74t-35 -76.5t-33 -67.5t-35.5 -68q-113 -199 -248 -323.5t-336 -192.5l-106 244q164 74 250 162z" />
<glyph unicode="z" horiz-adv-x="1077" d="M74 0v205l475 522q-94 -6 -191 -6h-266v268h887v-198l-455 -533q119 6 209 6h271v-264h-930z" />
<glyph unicode="{" horiz-adv-x="829" d="M57 379v231q131 12 176.5 60.5t45.5 169.5v90q0 231 116.5 329.5t390.5 102.5l19 -227q-135 -18 -177 -60.5t-42 -144.5v-90q0 -166 -59.5 -243t-188.5 -101q129 -25 188.5 -102.5t59.5 -241.5v-93q0 -102 43 -144t176 -58l-19 -230q-274 6 -390.5 104.5t-116.5 327.5v93 q0 121 -45.5 169t-176.5 58z" />
<glyph unicode="|" horiz-adv-x="700" d="M215 -410v1731h270v-1731h-270z" />
<glyph unicode="}" horiz-adv-x="829" d="M31 -143q133 16 176 58t43 144v91q0 166 59.5 243.5t188.5 102.5q-129 25 -188.5 101.5t-59.5 242.5v90q0 102 -42 144t-177 61l18 227q274 -4 391 -102.5t117 -329.5v-90q0 -121 45 -169t178 -61v-231q-133 -10 -178 -58.5t-45 -168.5v-93q0 -231 -116.5 -328.5 t-391.5 -103.5z" />
<glyph unicode="~" horiz-adv-x="1040" d="M92 520q86 160 181.5 201t207.5 -10l150 -62q51 -25 97 -7.5t99 95.5l121 -86q-88 -160 -185 -201.5t-206 7.5l-149 61q-51 27 -96.5 11.5t-100.5 -93.5z" />
<glyph unicode="&#xa1;" horiz-adv-x="536" d="M94 -254l47 805h254l47 -805h-348zM115 856.5q0 65.5 43 109.5t110.5 44t110.5 -44t43 -109.5t-43 -111t-110.5 -45.5t-110.5 45.5t-43 111z" />
<glyph unicode="&#xa2;" horiz-adv-x="1058" d="M70 557q0 242 112.5 393.5t298.5 182.5v116h211v-116q143 -20 301 -103l-90 -211q-133 57 -278 58q-113 0 -174.5 -83t-61.5 -237q0 -150 60.5 -230.5t171.5 -80.5q170 0 305 86l104 -199q-156 -123 -338 -145v-107h-211v109q-182 29 -296.5 170t-114.5 397z" />
<glyph unicode="&#xa3;" horiz-adv-x="1187" d="M82 0v240l129 20l18 176h-147v172h164q33 279 152.5 410t336.5 131q227 0 412 -113l-90 -209q-154 63 -275 64q-94 0 -145 -63.5t-70 -219.5h334v-172h-352l-17 -168h539v-268h-989z" />
<glyph unicode="&#xa5;" horiz-adv-x="1189" d="M18 1124h340l174 -327l62 -148l61 148l174 327h342l-301 -559h205v-127h-272l-37 -67h309v-127h-315v-244h-332v244h-309v127h303l-37 67h-266v127h198z" />
<glyph unicode="&#xa6;" horiz-adv-x="700" d="M215 295h270v-705h-270v705zM215 616v705h270v-705h-270z" />
<glyph unicode="&#xa7;" horiz-adv-x="1243" d="M94 547q0 141 162 225q-72 72 -72 195q0 139 100.5 221t278.5 82q236 0 457 -92l-82 -232q-197 96 -344 96q-106 0 -107 -67q0 -37 43 -56.5t218 -72.5q217 -66 298.5 -133.5t81.5 -175.5q0 -152 -157 -230q68 -70 67 -190q0 -143 -102 -231.5t-289 -88.5 q-262 1 -504 148l86 233q217 -137 400 -137q109 0 108 68q0 37 -45 58t-215 71q-217 63 -300 131.5t-83 177.5zM383 594q0 -14 7 -25.5t25.5 -22.5t38 -20.5t53.5 -20.5t61.5 -18.5t74.5 -21.5t80 -25q63 -23 78 -28q39 45 39 77q0 14 -7.5 25.5t-26 23t-36.5 20.5t-52 20.5 t-61.5 18.5t-74.5 21.5t-80 24.5l-80 27q-39 -47 -39 -76z" />
<glyph unicode="&#xa8;" horiz-adv-x="1013" d="M139 1270q0 70 46.5 109.5t109.5 39.5q68 0 112 -40t44 -109q0 -68 -44.5 -108t-111.5 -40q-61 0 -108.5 40t-47.5 108zM565 1270q0 70 44 109.5t110 39.5q63 0 109 -40t46 -109q0 -68 -47 -108t-108 -40q-66 0 -110 40t-44 108z" />
<glyph unicode="&#xa9;" horiz-adv-x="1499" d="M109 624.5q0 268.5 187 457t456 188.5q266 0 453.5 -188.5t187.5 -457t-186.5 -455.5t-455 -187t-455.5 187t-187 455.5zM184 624.5q0 -235.5 166 -401.5t402 -166q233 0 399 166t166 401.5t-166 402.5t-399 167q-236 0 -402 -167t-166 -402.5zM397 618q0 174 96.5 274.5 t256.5 100.5q158 0 297 -80l-66 -149q-117 47 -201 47q-156 0 -155 -193q0 -184 157 -184q102 0 217 68l72 -140q-141 -111 -319 -110q-154 0 -254.5 98.5t-100.5 267.5z" />
<glyph unicode="&#xaa;" horiz-adv-x="802" d="M55 760q0 111 74 163t225 56q92 0 140 -2q0 61 -22.5 89t-82.5 28q-92 0 -229 -31l-35 151q199 55 307 56q156 0 224.5 -67.5t68.5 -225.5v-428h-233v78q-94 -90 -203 -90q-119 0 -176.5 51t-57.5 172zM272 788q0 -82 93 -81q72 0 127 59v100h-107q-113 0 -113 -78z" />
<glyph unicode="&#xab;" horiz-adv-x="1261" d="M66 524l454 441l164 -162l-207 -209q-35 -35 -82 -72q37 -27 84 -69l205 -211l-162 -156zM547 524l454 441l164 -162l-207 -209q-35 -35 -81 -72q37 -27 84 -69l204 -211l-161 -156z" />
<glyph unicode="&#xad;" horiz-adv-x="837" d="M117 422v287h604v-287h-604z" />
<glyph unicode="&#xae;" horiz-adv-x="1499" d="M109 624.5q0 268.5 187 457t456 188.5q266 0 453.5 -188.5t187.5 -457t-186.5 -455.5t-455 -187t-455.5 187t-187 455.5zM184 624.5q0 -235.5 166 -401.5t402 -166q233 0 399 166t166 401.5t-166 402.5t-399 167q-236 0 -402 -167t-166 -402.5zM453 270v713h303 q324 0 323 -252q0 -152 -131 -186q96 -53 156 -275h-242q-39 147 -67 179q-25 25 -54 24h-90v-203h-198zM666 633h106q96 0 96 90q0 96 -112 96h-90v-186z" />
<glyph unicode="&#xaf;" horiz-adv-x="1013" d="M193 1153v231h630v-231h-630z" />
<glyph unicode="&#xb0;" horiz-adv-x="755" d="M78 969q0 135 82 218t217 83q137 0 219 -83t82 -218q0 -133 -82 -214t-219 -81q-135 0 -217 81t-82 214zM260 969q0 -53 31 -85t86 -32q57 0 88 30.5t31 86.5q0 57 -32 91t-87 34t-86 -34t-31 -91z" />
<glyph unicode="&#xb1;" horiz-adv-x="1032" d="M92 43v201h830v-201h-830zM92 575v201h322v246h202v-246h322v-201h-322v-245h-202v245h-322z" />
<glyph unicode="&#xb2;" horiz-adv-x="731" d="M39 1380q211 94 344 95q125 0 200.5 -72t75.5 -191q0 -96 -77.5 -171.5t-247.5 -184.5q98 8 139 8h193v-178h-607v150q33 27 88.5 69.5t83 65t67.5 56.5t60.5 54.5t42 45t30.5 44t9 37.5q0 90 -96 90q-94 0 -246 -65z" />
<glyph unicode="&#xb3;" horiz-adv-x="737" d="M27 969l57 143q139 -66 274 -65q115 0 115 79q0 84 -162 84h-112v156h112q80 0 114 15.5t34 54.5q0 84 -113 84q-102 -1 -252 -52l-43 140q180 74 324 73q125 0 201.5 -59t76.5 -158q0 -63 -32.5 -107t-83.5 -65q135 -51 135 -168q0 -115 -80 -177t-223 -62 q-190 0 -342 84z" />
<glyph unicode="&#xb4;" horiz-adv-x="1013" d="M313 1157l262 338l205 -143v-66q-160 -119 -387 -213z" />
<glyph unicode="&#xb6;" horiz-adv-x="1210" d="M78 815q0 227 126 330.5t398 103.5h528v-245l-188 -29v-975h-301v391h-39q-272 0 -398 101.5t-126 322.5z" />
<glyph unicode="&#xb7;" horiz-adv-x="589" d="M106 557q0 80 51.5 132t133.5 52t133 -52t51 -132t-51 -133t-133 -53t-133.5 53t-51.5 133z" />
<glyph unicode="&#xb8;" horiz-adv-x="1013" d="M281 -375l26 121q90 -18 139 -18q84 0 84 61q0 41 -22.5 57.5t-81.5 16.5h-55l41 198h118l-2 -122q111 -8 153 -46t42 -120q0 -84 -53.5 -138.5t-149.5 -54.5q-115 0 -239 45z" />
<glyph unicode="&#xb9;" horiz-adv-x="700" d="M61 1321q141 51 256 133h170v-598h175v-178h-560v178h177v367q-98 -25 -179 -35z" />
<glyph unicode="&#xba;" horiz-adv-x="872" d="M70 899q0 178 96 274.5t270 96.5t270.5 -96.5t96.5 -274.5q0 -174 -96.5 -268t-270.5 -94t-270 94t-96 268zM297 899q0 -180 139 -180q141 0 142 180q0 188 -142 188q-139 0 -139 -188z" />
<glyph unicode="&#xbb;" horiz-adv-x="1261" d="M98 242l203 211q41 39 84 71q-57 45 -82 70l-205 209l162 162l455 -441l-457 -438zM580 242l202 211q41 39 84 71q-57 45 -82 70l-204 209l161 162l455 -441l-457 -438z" />
<glyph unicode="&#xbc;" horiz-adv-x="1830" d="M61 1116q141 51 256 133h170v-598h175v-178h-560v178h177v367q-98 -25 -179 -35zM477 0l703 1249h184l-705 -1249h-182zM973 281l426 495h203v-475h110v-164h-110v-137h-203v137h-418zM1161 301h238v260q-25 -33 -56 -65l-106 -117q-33 -43 -76 -78z" />
<glyph unicode="&#xbd;" horiz-adv-x="1867" d="M61 1116q141 51 256 133h170v-598h175v-178h-560v178h177v367q-98 -25 -179 -35zM477 0l703 1249h184l-705 -1249h-182zM1128 696q213 92 345 92q127 0 201.5 -71.5t74.5 -190.5q0 -96 -78 -171.5t-248 -184.5q98 8 140 8h192v-178h-606v150q33 27 88 69.5t83 65 t67.5 56.5t60 54.5t42 45t31 44t9.5 37.5q0 90 -96 90q-94 0 -246 -65z" />
<glyph unicode="&#xbe;" horiz-adv-x="1800" d="M27 557l57 143q139 -66 274 -65q115 0 115 80q0 84 -162 84h-112v155h112q80 0 114 15.5t34 54.5q0 84 -113 84q-102 0 -252 -51l-43 139q180 74 324 74q125 0 201.5 -59.5t76.5 -157.5q0 -63 -32.5 -107.5t-83.5 -64.5q135 -53 135 -168t-80 -177.5t-223 -62.5 q-190 0 -342 84zM457 0l702 1249h184l-704 -1249h-182zM961 281l428 495h200v-477h113v-162h-113v-137h-200v137h-418zM1151 299h238v262q-20 -29 -56 -67l-106 -117q-31 -37 -76 -78z" />
<glyph unicode="&#xbf;" horiz-adv-x="1105" d="M72 117q0 145 112.5 243.5t315.5 139.5l-4 100h260l47 -303q-215 -6 -301 -42t-86 -101q0 -72 45 -112t119 -40q145 1 399 107l90 -232q-176 -80 -301 -115.5t-248 -35.5q-203 0 -325.5 109.5t-122.5 281.5zM469 856.5q0 65.5 43 109.5t110.5 44t110.5 -44t43 -109.5 t-43 -111t-110.5 -45.5t-110.5 45.5t-43 111z" />
<glyph unicode="&#xc0;" horiz-adv-x="1423" d="M18 0l467 1249h455l465 -1249h-356l-70 199h-533l-69 -199h-359zM430 1505v64l236 129l231 -307l-78 -84q-227 86 -389 198zM551 502h321l-124 358q-29 90 -35 115q-6 -18 -18.5 -56t-18.5 -59z" />
<glyph unicode="&#xc1;" horiz-adv-x="1423" d="M18 0l467 1249h455l465 -1249h-356l-70 199h-533l-69 -199h-359zM520 1395l232 307l235 -127v-66q-164 -111 -387 -196zM551 502h321l-124 358q-29 90 -35 115q-6 -18 -18.5 -56t-18.5 -59z" />
<glyph unicode="&#xc2;" horiz-adv-x="1423" d="M18 0l467 1249h455l465 -1249h-356l-70 199h-533l-69 -199h-359zM352 1391l266 282h189l268 -282l-82 -86l-280 170l-281 -170zM551 502h321l-124 358q-29 90 -35 115q-6 -18 -18.5 -56t-18.5 -59z" />
<glyph unicode="&#xc3;" horiz-adv-x="1423" d="M18 0l467 1249h455l465 -1249h-356l-70 199h-533l-69 -199h-359zM360 1376q4 94 39 155.5t86.5 82t106.5 18.5t108 -24l111 -54q51 -20 76.5 -7.5t68.5 71.5l119 -4q-4 -96 -42 -158.5t-91 -84t-109.5 -19.5t-107.5 24l-113 54q-47 23 -74.5 10t-66.5 -68zM551 502h321 l-124 358q-29 90 -35 115q-6 -18 -18.5 -56t-18.5 -59z" />
<glyph unicode="&#xc4;" horiz-adv-x="1423" d="M18 0l467 1249h455l465 -1249h-356l-70 199h-533l-69 -199h-359zM352 1503q0 66 45.5 105t102.5 39q66 0 107.5 -38t41.5 -106q0 -66 -42 -103.5t-107 -37.5q-57 0 -102.5 39t-45.5 102zM551 502h321l-124 358q-29 90 -35 115q-6 -18 -18.5 -56t-18.5 -59zM776 1503 q0 68 43.5 106t106.5 38q59 0 103 -39t44 -105q0 -63 -44 -102t-103 -39q-63 0 -106.5 38t-43.5 103z" />
<glyph unicode="&#xc5;" horiz-adv-x="1423" d="M18 0l467 1249h455l465 -1249h-356l-70 199h-533l-69 -199h-359zM489 1540q0 98 62.5 158.5t161 60.5t161 -60.5t62.5 -158.5q0 -94 -62.5 -153.5t-161 -59.5t-161 59.5t-62.5 153.5zM551 502h321l-124 358q-29 90 -35 115q-6 -18 -18.5 -56t-18.5 -59zM625 1540 q0 -37 24.5 -58.5t63.5 -21.5q41 0 64.5 21.5t23.5 58.5q0 41 -23.5 63.5t-64.5 22.5q-39 0 -63.5 -22.5t-24.5 -63.5z" />
<glyph unicode="&#xc6;" horiz-adv-x="2000" d="M18 0l799 1249h1077v-303h-587v-188h501v-287h-501v-174h604v-297h-938v199h-455l-121 -199h-379zM705 502h268v440z" />
<glyph unicode="&#xc7;" horiz-adv-x="1253" d="M70 621q0 309 168 479t469 170q246 0 467 -113l-101 -252q-217 66 -350 66q-315 0 -315 -350q0 -152 80.5 -246t213.5 -94q178 0 408 92l109 -248q-258 -143 -533 -143h-10v-43q113 -8 154.5 -46t41.5 -120q0 -84 -53 -138.5t-149 -54.5q-113 0 -242 45l29 121 q86 -18 139 -18q82 0 82 61q0 41 -22.5 57.5t-82.5 16.5h-55l27 131q-225 39 -350 200.5t-125 426.5z" />
<glyph unicode="&#xc8;" horiz-adv-x="1146" d="M119 0v1249h921v-303h-587v-188h501v-287h-501v-174h604v-297h-938zM283 1505v64l235 129l232 -307l-78 -84q-227 86 -389 198z" />
<glyph unicode="&#xc9;" horiz-adv-x="1146" d="M119 0v1249h921v-303h-587v-188h501v-287h-501v-174h604v-297h-938zM373 1395l231 307l236 -127v-66q-164 -111 -387 -196z" />
<glyph unicode="&#xca;" horiz-adv-x="1146" d="M119 0v1249h921v-303h-587v-188h501v-287h-501v-174h604v-297h-938zM205 1391l266 282h188l269 -282l-82 -86l-281 170l-280 -170z" />
<glyph unicode="&#xcb;" horiz-adv-x="1146" d="M119 0v1249h921v-303h-587v-188h501v-287h-501v-174h604v-297h-938zM205 1503q0 66 45 105t102 39q66 0 108 -38t42 -106q0 -66 -42 -103.5t-108 -37.5q-57 0 -102 39t-45 102zM629 1503q0 68 43 106t106 38q59 0 103.5 -39t44.5 -105q0 -63 -44 -102t-104 -39 q-63 0 -106 38t-43 103z" />
<glyph unicode="&#xcc;" horiz-adv-x="571" d="M4 1505v64l236 129l231 -307l-78 -84q-227 86 -389 198zM119 0v1249h334v-1249h-334z" />
<glyph unicode="&#xcd;" horiz-adv-x="571" d="M94 1395l232 307l235 -127v-66q-164 -111 -387 -196zM119 0v1249h334v-1249h-334z" />
<glyph unicode="&#xce;" horiz-adv-x="571" d="M-76 1391l269 282h188l268 -282l-82 -86l-280 170l-281 -170zM119 0v1249h334v-1249h-334z" />
<glyph unicode="&#xcf;" horiz-adv-x="571" d="M-74 1503q0 66 45.5 105t102.5 39q66 0 107.5 -38t41.5 -106q0 -66 -42 -103.5t-107 -37.5q-57 0 -102.5 39t-45.5 102zM119 0v1249h334v-1249h-334zM350 1503q0 68 43.5 106t106.5 38q59 0 103 -39t44 -105q0 -63 -44 -102t-103 -39q-63 0 -106.5 38t-43.5 103z" />
<glyph unicode="&#xd0;" horiz-adv-x="1347" d="M10 494v256h111v499h442q336 0 525.5 -170t189.5 -456q0 -283 -191.5 -453t-523.5 -170h-442v494h-111zM455 293h108q377 0 377 330q0 172 -91 252.5t-286 80.5h-108v-206h192v-256h-192v-201z" />
<glyph unicode="&#xd1;" d="M119 0v1249h303l528 -712v712h334v-1249h-303l-528 705v-705h-334zM348 1376q4 94 39 155.5t86 82t106.5 18.5t108.5 -24l111 -54q51 -20 76.5 -7.5t68.5 71.5l119 -4q-4 -96 -42 -158.5t-91 -84t-109.5 -19.5t-107.5 24l-113 54q-47 23 -74.5 10t-66.5 -68z" />
<glyph unicode="&#xd2;" d="M70 623q0 309 166.5 478t465.5 169q297 0 464 -169t167 -478q0 -307 -167 -474t-464 -167q-299 0 -465.5 166.5t-166.5 474.5zM408 623q0 -168 76.5 -255t217.5 -87q139 0 216 87t77 255q0 172 -76.5 260t-216.5 88q-141 0 -217.5 -88t-76.5 -260zM420 1505v64l235 129 l232 -307l-80 -84q-225 86 -387 198z" />
<glyph unicode="&#xd3;" d="M70 623q0 309 166.5 478t465.5 169q297 0 464 -169t167 -478q0 -307 -167 -474t-464 -167q-299 0 -465.5 166.5t-166.5 474.5zM408 623q0 -168 76.5 -255t217.5 -87q139 0 216 87t77 255q0 172 -76.5 260t-216.5 88q-141 0 -217.5 -88t-76.5 -260zM508 1395l233 307 l234 -127v-66q-168 -113 -387 -196z" />
<glyph unicode="&#xd4;" d="M70 623q0 309 166.5 478t465.5 169q297 0 464 -169t167 -478q0 -307 -167 -474t-464 -167q-299 0 -465.5 166.5t-166.5 474.5zM340 1391l268 282h187l268 -282l-80 -86l-281 170l-280 -170zM408 623q0 -168 76.5 -255t217.5 -87q139 0 216 87t77 255q0 172 -76.5 260 t-216.5 88q-141 0 -217.5 -88t-76.5 -260z" />
<glyph unicode="&#xd5;" d="M70 623q0 309 166.5 478t465.5 169q297 0 464 -169t167 -478q0 -307 -167 -474t-464 -167q-299 0 -465.5 166.5t-166.5 474.5zM348 1376q4 94 40 155.5t87 82t106.5 18.5t106.5 -24l111 -54q51 -20 76.5 -6.5t68.5 70.5l119 -4q-4 -96 -41 -158.5t-91 -84t-110.5 -19.5 t-107.5 24l-113 54q-47 23 -73.5 10t-67.5 -68zM408 623q0 -168 76.5 -255t217.5 -87q139 0 216 87t77 255q0 172 -76.5 260t-216.5 88q-141 0 -217.5 -88t-76.5 -260z" />
<glyph unicode="&#xd6;" d="M70 623q0 309 166.5 478t465.5 169q297 0 464 -169t167 -478q0 -307 -167 -474t-464 -167q-299 0 -465.5 166.5t-166.5 474.5zM342 1503q0 66 44 105t103 39q63 0 106.5 -38t43.5 -106q0 -66 -43 -103.5t-107 -37.5q-59 0 -103 39t-44 102zM408 623q0 -168 76.5 -255 t217.5 -87q139 0 216 87t77 255q0 172 -76.5 260t-216.5 88q-141 0 -217.5 -88t-76.5 -260zM766 1503q0 68 42 106t105 38q59 0 103.5 -39t44.5 -105q0 -63 -44 -102t-104 -39q-63 0 -105 38t-42 103z" />
<glyph unicode="&#xd7;" horiz-adv-x="1013" d="M125 733l168 166l217 -217l219 217l160 -168l-213 -215l213 -213l-166 -166l-213 213l-213 -213l-166 164l213 213z" />
<glyph unicode="&#xd8;" d="M70 621q0 309 166.5 479t465.5 170q233 0 390 -107l98 103l119 -117l-97 -100q121 -168 121 -428q0 -305 -167 -472t-466 -167q-244 0 -399 112l-106 -110l-119 116l106 113q-113 156 -112 408zM408 621q0 -91 20 -152l438 459q-68 43 -166 43q-139 0 -215.5 -89 t-76.5 -261zM526 330q68 -49 174 -49q141 0 218 86t77 254q1 102 -26 174z" />
<glyph unicode="&#xd9;" horiz-adv-x="1357" d="M109 596v653h333v-653q0 -315 236 -315q238 0 237 315v653h334v-653q0 -311 -141 -462.5t-430 -151.5q-287 0 -428 151.5t-141 462.5zM395 1505v64l236 129l233 -307l-80 -84q-221 84 -389 198z" />
<glyph unicode="&#xda;" horiz-adv-x="1357" d="M109 596v653h333v-653q0 -315 236 -315q238 0 237 315v653h334v-653q0 -311 -141 -462.5t-430 -151.5q-287 0 -428 151.5t-141 462.5zM485 1395l232 307l235 -127v-66q-164 -111 -387 -196z" />
<glyph unicode="&#xdb;" horiz-adv-x="1357" d="M109 596v653h333v-653q0 -315 236 -315q238 0 237 315v653h334v-653q0 -311 -141 -462.5t-430 -151.5q-287 0 -428 151.5t-141 462.5zM317 1391l269 282h186l268 -282l-82 -86l-280 170l-281 -170z" />
<glyph unicode="&#xdc;" horiz-adv-x="1357" d="M109 596v653h333v-653q0 -315 236 -315q238 0 237 315v653h334v-653q0 -311 -141 -462.5t-430 -151.5q-287 0 -428 151.5t-141 462.5zM319 1503q0 66 44.5 105t103.5 39q63 0 105 -38t42 -106q0 -66 -42 -103.5t-105 -37.5q-59 0 -103.5 39t-44.5 102zM741 1503 q0 68 43.5 106t106.5 38q59 0 103 -39t44 -105q0 -63 -44 -102t-103 -39q-63 0 -106.5 38t-43.5 103z" />
<glyph unicode="&#xdd;" horiz-adv-x="1306" d="M18 1249h351l209 -393q49 -92 75 -158q27 66 76 158l209 393h350l-469 -856v-393h-332v393zM461 1395l231 307l236 -127v-66q-164 -111 -387 -196z" />
<glyph unicode="&#xde;" horiz-adv-x="1212" d="M119 0v1249h334v-168h165q283 0 417 -114.5t134 -354.5q0 -238 -130 -345t-404 -107h-182v-160h-334zM453 424h180q213 0 213 188q0 184 -230 185h-163v-373z" />
<glyph unicode="&#xdf;" horiz-adv-x="1265" d="M-2 754v235l149 -2q59 145 198.5 228t332.5 83q203 0 330 -96t127 -252q0 -207 -215 -270q285 -72 284 -344q0 -160 -110.5 -257t-292.5 -97q-137 0 -246 32l23 230q119 -12 170 -13q74 0 114.5 38t40.5 104q0 141 -266 141h-55v242h55q90 0 140 41t50 114 q0 121 -145 121q-115 0 -178.5 -61.5t-63.5 -175.5v-795h-327v735z" />
<glyph unicode="&#xe0;" horiz-adv-x="1077" d="M49 293q0 307 418 307h197q0 86 -31 121t-117 35q-122 0 -321 -43l-50 221q285 74 433 74q215 0 310 -96.5t95 -311.5v-600h-319v117q-131 -135 -289 -135q-164 0 -245 71.5t-81 239.5zM289 1286v66l205 143l264 -338l-80 -84q-231 96 -389 213zM348 332q0 -53 36 -85 t97 -32q100 0 183 86v125h-154q-88 0 -125 -17.5t-37 -76.5z" />
<glyph unicode="&#xe1;" horiz-adv-x="1077" d="M49 293q0 307 418 307h197q0 86 -31 121t-117 35q-122 0 -321 -43l-50 221q285 74 433 74q215 0 310 -96.5t95 -311.5v-600h-319v117q-131 -135 -289 -135q-164 0 -245 71.5t-81 239.5zM346 1157l262 338l205 -143v-66q-160 -119 -387 -213zM348 332q0 -53 36 -85t97 -32 q100 0 183 86v125h-154q-88 0 -125 -17.5t-37 -76.5z" />
<glyph unicode="&#xe2;" horiz-adv-x="1077" d="M49 293q0 307 418 307h197q0 86 -31 121t-117 35q-122 0 -321 -43l-50 221q285 74 433 74q215 0 310 -96.5t95 -311.5v-600h-319v117q-131 -135 -289 -135q-164 0 -245 71.5t-81 239.5zM201 1161l258 287h178l258 -287l-78 -82q-51 33 -142 86.5t-128 75.5 q-35 -20 -125 -74.5t-143 -87.5zM348 332q0 -53 36 -85t97 -32q100 0 183 86v125h-154q-88 0 -125 -17.5t-37 -76.5z" />
<glyph unicode="&#xe3;" horiz-adv-x="1077" d="M49 293q0 307 418 307h197q0 86 -31 121t-117 35q-122 0 -321 -43l-50 221q285 74 433 74q215 0 310 -96.5t95 -311.5v-600h-319v117q-131 -135 -289 -135q-164 0 -245 71.5t-81 239.5zM186 1171q4 94 39 156t87.5 82.5t107.5 18t106 -24.5l111 -53q51 -20 76.5 -7 t68.5 70l119 -4q-4 -96 -42 -158.5t-91 -84t-109.5 -19.5t-107.5 24l-113 54q-47 23 -74.5 10.5t-66.5 -68.5zM348 332q0 -53 36 -85t97 -32q100 0 183 86v125h-154q-88 0 -125 -17.5t-37 -76.5z" />
<glyph unicode="&#xe4;" horiz-adv-x="1077" d="M49 293q0 307 418 307h197q0 86 -31 121t-117 35q-122 0 -321 -43l-50 221q285 74 433 74q215 0 310 -96.5t95 -311.5v-600h-319v117q-131 -135 -289 -135q-164 0 -245 71.5t-81 239.5zM172 1270q0 70 46.5 109.5t109.5 39.5q68 0 111.5 -40t43.5 -109q0 -68 -44 -108 t-111 -40q-61 0 -108.5 40t-47.5 108zM348 332q0 -53 36 -85t97 -32q100 0 183 86v125h-154q-88 0 -125 -17.5t-37 -76.5zM598 1270q0 70 44 109.5t110 39.5q63 0 109 -40t46 -109q0 -68 -47 -108t-108 -40q-66 0 -110 40t-44 108z" />
<glyph unicode="&#xe5;" horiz-adv-x="1077" d="M49 293q0 307 418 307h197q0 86 -31 121t-117 35q-122 0 -321 -43l-50 221q285 74 433 74q215 0 310 -96.5t95 -311.5v-600h-319v117q-131 -135 -289 -135q-164 0 -245 71.5t-81 239.5zM334 1305q0 98 61.5 158.5t161.5 60.5q98 0 160.5 -60.5t62.5 -158.5 q0 -94 -62.5 -153.5t-162.5 -59.5q-98 0 -159.5 59t-61.5 154zM348 332q0 -53 36 -85t97 -32q100 0 183 86v125h-154q-88 0 -125 -17.5t-37 -76.5zM469 1305q0 -37 24.5 -58.5t61.5 -21.5q41 0 64.5 21.5t23.5 58.5q0 41 -23.5 63.5t-62.5 22.5t-63.5 -22.5t-24.5 -63.5z " />
<glyph unicode="&#xe6;" horiz-adv-x="1687" d="M49 293q0 299 418 299h190q0 90 -29.5 131t-111.5 41q-123 0 -321 -43l-50 213q285 74 433 74q186 0 276 -84q125 84 311 84q213 0 336 -122t125 -354q0 -65 -8 -133h-639q33 -164 199 -163q182 0 350 90l92 -185q-213 -160 -457 -159q-231 0 -364 127 q-190 -127 -383 -127t-280 69.5t-87 241.5zM350 315q0 -100 142 -100q92 0 208 47q-25 72 -32 137h-11h-147q-92 0 -126 -16t-34 -68zM977 594h369q-12 186 -181 186q-161 0 -188 -186z" />
<glyph unicode="&#xe7;" horiz-adv-x="1007" d="M59 489q0 250 131.5 384.5t348.5 134.5q221 0 405 -109l-90 -207q-129 55 -270 56q-96 0 -149.5 -67t-53.5 -192q0 -119 52 -183t149 -64q156 0 301 75l96 -186q-96 -76 -192.5 -111.5t-227.5 -37.5v-43q113 -8 155 -46t42 -120q0 -84 -53.5 -138.5t-149.5 -54.5 q-113 0 -242 45l29 121q86 -18 139 -18q82 0 82 61q0 41 -22.5 57.5t-81.5 16.5h-56l27 129q-166 33 -267.5 161t-101.5 336z" />
<glyph unicode="&#xe8;" horiz-adv-x="1083" d="M59 487q0 254 133.5 387.5t368.5 133.5q213 0 336 -122t125 -354q0 -66 -8 -133h-639q33 -164 198 -163q181 0 351 90l92 -185q-213 -160 -457 -159q-233 0 -366.5 130t-133.5 375zM287 1288v64l205 145l262 -338l-80 -84q-217 88 -387 213zM373 594h368 q-12 186 -180 186q-161 0 -188 -186z" />
<glyph unicode="&#xe9;" horiz-adv-x="1083" d="M59 487q0 254 133.5 387.5t368.5 133.5q213 0 336 -122t125 -354q0 -66 -8 -133h-639q33 -164 198 -163q181 0 351 90l92 -185q-213 -160 -457 -159q-233 0 -366.5 130t-133.5 375zM342 1159l264 338l203 -145v-64q-164 -123 -387 -213zM373 594h368q-12 186 -180 186 q-161 0 -188 -186z" />
<glyph unicode="&#xea;" horiz-adv-x="1083" d="M59 487q0 254 133.5 387.5t368.5 133.5q213 0 336 -122t125 -354q0 -66 -8 -133h-639q33 -164 198 -163q181 0 351 90l92 -185q-213 -160 -457 -159q-233 0 -366.5 130t-133.5 375zM197 1163l258 285h178l260 -285l-78 -82q-229 137 -270 162q-47 -29 -136.5 -82 t-134.5 -80zM373 594h368q-12 186 -180 186q-161 0 -188 -186z" />
<glyph unicode="&#xeb;" horiz-adv-x="1083" d="M59 487q0 254 133.5 387.5t368.5 133.5q213 0 336 -122t125 -354q0 -66 -8 -133h-639q33 -164 198 -163q181 0 351 90l92 -185q-213 -160 -457 -159q-233 0 -366.5 130t-133.5 375zM168 1270q0 70 46.5 109.5t109.5 39.5q68 0 111.5 -40t43.5 -109q0 -68 -44 -108 t-111 -40q-61 0 -108.5 40t-47.5 108zM373 594h368q-12 186 -180 186q-161 0 -188 -186zM594 1270q0 70 44 109.5t110 39.5q63 0 109 -40t46 -109q0 -68 -47 -108t-108 -40q-66 0 -110 40t-44 108z" />
<glyph unicode="&#xec;" horiz-adv-x="550" d="M25 1286v66l204 143l265 -338l-80 -84q-231 96 -389 213zM113 0v989h327v-989h-327z" />
<glyph unicode="&#xed;" horiz-adv-x="550" d="M82 1157l262 338l205 -143v-66q-160 -119 -387 -213zM113 0v989h327v-989h-327z" />
<glyph unicode="&#xee;" horiz-adv-x="550" d="M-66 1161l261 287h178l258 -287l-78 -82q-51 33 -142.5 86.5t-127.5 75.5q-35 -20 -125 -74.5t-144 -87.5zM113 0v989h327v-989h-327z" />
<glyph unicode="&#xef;" horiz-adv-x="550" d="M-92 1270q0 70 46 109.5t109 39.5q68 0 112 -40t44 -109q0 -68 -44 -108t-112 -40q-61 0 -108 40t-47 108zM113 0v989h327v-989h-327zM334 1270q0 70 43.5 109.5t109.5 39.5q63 0 109.5 -40t46.5 -109q0 -68 -47 -108t-109 -40q-66 0 -109.5 40t-43.5 108z" />
<glyph unicode="&#xf0;" horiz-adv-x="1148" d="M59 489q0 211 136.5 342.5t390.5 131.5q-61 63 -117 112l-205 -84l-41 109l142 57q-55 43 -123 86v43l319 117q23 -23 64 -60.5t59 -54.5l172 70l39 -109l-121 -49q164 -170 240 -329.5t76 -381.5q0 -242 -135.5 -374.5t-381.5 -132.5q-244 0 -379 133t-135 374zM381 473 q-1 -231 192 -231q96 0 144.5 57t48.5 190q0 152 -51 277q-197 -6 -265.5 -70.5t-68.5 -222.5z" />
<glyph unicode="&#xf1;" horiz-adv-x="1159" d="M100 0v989h328v-129q164 147 326 148q160 0 235.5 -90.5t75.5 -288.5v-629h-328v537q0 94 -23.5 129.5t-90.5 35.5q-104 0 -195 -112v-590h-328zM229 1171q4 94 39 156t87.5 82.5t107.5 18t106 -24.5l111 -53q51 -20 76.5 -7t68.5 70l119 -4q-4 -96 -42 -158.5t-91 -84 t-109.5 -19.5t-107.5 24l-113 54q-47 23 -74.5 10.5t-66.5 -68.5z" />
<glyph unicode="&#xf2;" horiz-adv-x="1148" d="M59 489q0 248 135 383.5t379 135.5q246 0 381.5 -135.5t135.5 -383.5q0 -242 -135.5 -374.5t-381.5 -132.5q-244 0 -379 133t-135 374zM324 1288v64l204 145l263 -338l-80 -84q-217 88 -387 213zM381 489q0 -133 48 -190t144 -57q98 0 146.5 57t48.5 190q0 139 -48 199 t-147 60q-96 0 -144 -60.5t-48 -198.5z" />
<glyph unicode="&#xf3;" horiz-adv-x="1148" d="M59 489q0 248 135 383.5t379 135.5q246 0 381.5 -135.5t135.5 -383.5q0 -242 -135.5 -374.5t-381.5 -132.5q-244 0 -379 133t-135 374zM379 1159l264 338l203 -145v-64q-164 -123 -387 -213zM381 489q0 -133 48 -190t144 -57q98 0 146.5 57t48.5 190q0 139 -48 199 t-147 60q-96 0 -144 -60.5t-48 -198.5z" />
<glyph unicode="&#xf4;" horiz-adv-x="1148" d="M59 489q0 248 135 383.5t379 135.5q246 0 381.5 -135.5t135.5 -383.5q0 -242 -135.5 -374.5t-381.5 -132.5q-244 0 -379 133t-135 374zM233 1163l259 285h178l260 -285l-78 -82q-229 137 -270 162q-47 -29 -136.5 -82t-134.5 -80zM381 489q0 -133 48 -190t144 -57 q98 0 146.5 57t48.5 190q0 139 -48 199t-147 60q-96 0 -144 -60.5t-48 -198.5z" />
<glyph unicode="&#xf5;" horiz-adv-x="1148" d="M59 489q0 248 135 383.5t379 135.5q246 0 381.5 -135.5t135.5 -383.5q0 -242 -135.5 -374.5t-381.5 -132.5q-244 0 -379 133t-135 374zM219 1155q4 94 39 155.5t86 82t106.5 18.5t108.5 -25l111 -53q51 -20 76.5 -7.5t68.5 71.5l119 -4q-4 -96 -42 -159t-91 -84.5 t-109.5 -19t-107.5 24.5l-113 53q-47 23 -74.5 10.5t-66.5 -67.5zM381 489q0 -133 48 -190t144 -57q98 0 146.5 57t48.5 190q0 139 -48 199t-147 60q-96 0 -144 -60.5t-48 -198.5z" />
<glyph unicode="&#xf6;" horiz-adv-x="1148" d="M59 489q0 248 135 383.5t379 135.5q246 0 381.5 -135.5t135.5 -383.5q0 -242 -135.5 -374.5t-381.5 -132.5q-244 0 -379 133t-135 374zM207 1271.5q0 67.5 45 107.5t108 40q68 0 112 -39t44 -108.5t-44 -108.5t-112 -39q-63 0 -108 40t-45 107.5zM381 489q0 -133 48 -190 t144 -57q98 0 146.5 57t48.5 190q0 139 -48 199t-147 60q-96 0 -144 -60.5t-48 -198.5zM631 1271.5q0 69.5 43.5 108.5t111.5 39q63 0 109.5 -40t46.5 -107.5t-46 -107.5t-110 -40q-68 0 -111.5 39t-43.5 108.5z" />
<glyph unicode="&#xf7;" horiz-adv-x="1015" d="M92 385v231h832v-231h-832zM395 172q0 49 32 82t83 33t84 -33t33 -82t-33 -83t-84 -34q-49 0 -82 34t-33 83zM395 831.5q0 49.5 33 83t82 33.5q51 0 84 -33.5t33 -83t-33 -82t-84 -32.5t-83 32.5t-32 82z" />
<glyph unicode="&#xf8;" horiz-adv-x="1122" d="M57 489q0 248 135.5 383.5t378.5 135.5q188 0 316 -82l76 78l86 -84l-72 -74q111 -135 110 -357q0 -242 -135 -374.5t-381 -132.5q-203 0 -331 94l-76 -80l-86 86l76 78q-96 127 -97 329zM379 489q0 -47 6 -88l301 316q-47 31 -115 31q-96 0 -144 -60.5t-48 -198.5z M440 285q43 -43 131 -43q98 0 146.5 57t48.5 190q0 72 -12 121z" />
<glyph unicode="&#xf9;" horiz-adv-x="1165" d="M94 362v627h328v-543q0 -94 23.5 -130.5t91.5 -36.5q106 0 196 114v596h328v-989h-328v117q-150 -98 -207 -117q-51 -18 -110 -18q-160 0 -241 92t-81 288zM332 1286v66l205 143l262 -338l-78 -84q-227 94 -389 213z" />
<glyph unicode="&#xfa;" horiz-adv-x="1165" d="M94 362v627h328v-543q0 -94 23.5 -130.5t91.5 -36.5q106 0 196 114v596h328v-989h-328v117q-150 -98 -207 -117q-51 -18 -110 -18q-160 0 -241 92t-81 288zM389 1157l262 338l205 -143v-66q-162 -119 -389 -213z" />
<glyph unicode="&#xfb;" horiz-adv-x="1165" d="M94 362v627h328v-543q0 -94 23.5 -130.5t91.5 -36.5q106 0 196 114v596h328v-989h-328v117q-150 -98 -207 -117q-51 -18 -110 -18q-160 0 -241 92t-81 288zM242 1161l260 287h178l258 -287l-78 -82q-51 33 -142 86.5t-128 75.5q-37 -23 -128 -76t-143 -86z" />
<glyph unicode="&#xfc;" horiz-adv-x="1165" d="M94 362v627h328v-543q0 -94 23.5 -130.5t91.5 -36.5q106 0 196 114v596h328v-989h-328v117q-150 -98 -207 -117q-51 -18 -110 -18q-160 0 -241 92t-81 288zM215 1270q0 70 46.5 109.5t109.5 39.5q66 0 109.5 -40t43.5 -109q0 -68 -44 -108t-109 -40q-61 0 -108.5 40 t-47.5 108zM639 1270q0 70 44 109.5t112 39.5q63 0 109 -40t46 -109q0 -68 -47 -108t-108 -40q-68 0 -112 40t-44 108z" />
<glyph unicode="&#xfd;" horiz-adv-x="1134" d="M2 987h336l174 -452l49 -158q104 215 223 612l344 -2q-6 -16 -30.5 -88t-31.5 -91.5t-29.5 -84t-32 -89t-31 -80.5t-32.5 -84t-30.5 -74t-35 -76.5t-33 -67.5t-35.5 -68q-113 -199 -248 -323.5t-336 -192.5l-106 244q164 74 250 162zM375 1157l262 338l205 -143v-66 q-162 -119 -389 -213z" />
<glyph unicode="&#xfe;" horiz-adv-x="1163" d="M100 -315v1564h328v-352q162 111 305 111q184 0 277.5 -122t93.5 -382q0 -262 -111.5 -392t-281.5 -130q-96 0 -154.5 25.5t-128.5 82.5v-405h-328zM428 330q80 -80 178 -80q174 0 174 254q0 231 -166 231q-94 0 -186 -86v-319z" />
<glyph unicode="&#xff;" horiz-adv-x="1134" d="M2 987h336l174 -452l49 -158q104 215 223 612l344 -2q-6 -16 -30.5 -88t-31.5 -91.5t-29.5 -84t-32 -89t-31 -80.5t-32.5 -84t-30.5 -74t-35 -76.5t-33 -67.5t-35.5 -68q-113 -199 -248 -323.5t-336 -192.5l-106 244q164 74 250 162zM201 1270q0 70 46 109.5t109 39.5 q66 0 110 -40t44 -109q0 -68 -44 -108t-110 -40q-61 0 -108 40t-47 108zM625 1270q0 70 43.5 109.5t111.5 39.5q63 0 109.5 -40t46.5 -109q0 -68 -47 -108t-109 -40q-68 0 -111.5 40t-43.5 108z" />
<glyph unicode="&#x152;" horiz-adv-x="1923" d="M70 621q0 309 166.5 479t465.5 170q106 0 193 -31v10h922v-303h-588v-188h502v-287h-502v-174h604v-297h-938v12q-86 -31 -193 -30q-299 0 -465.5 166.5t-166.5 472.5zM408 623q0 -168 76.5 -255t215.5 -87q123 0 195 63v563q-72 63 -195 64q-139 0 -215.5 -88 t-76.5 -260z" />
<glyph unicode="&#x153;" horiz-adv-x="1798" d="M59 489q0 248 135.5 383.5t378.5 135.5q221 0 357 -113q127 113 346 113q213 0 336 -122t125 -354q0 -65 -8 -133h-637q31 -164 196 -163q182 0 350 90l93 -185q-213 -160 -457 -159q-217 0 -346 110q-133 -111 -355 -110q-244 0 -379 133t-135 374zM381 489 q0 -133 48 -190t144 -57q98 0 146.5 57t48.5 190q0 139 -48 199t-147 60q-96 0 -144 -60.5t-48 -198.5zM1087 594h369q-12 186 -180 186q-162 0 -189 -186z" />
<glyph unicode="&#x178;" horiz-adv-x="1306" d="M18 1249h351l209 -393q49 -92 75 -158q27 66 76 158l209 393h350l-469 -856v-393h-332v393zM293 1503q0 66 45 105t102 39q66 0 108 -38t42 -106q0 -66 -42 -103.5t-108 -37.5q-57 0 -102 39t-45 102zM717 1503q0 68 43 106t106 38q59 0 103.5 -39t44.5 -105 q0 -63 -44 -102t-104 -39q-63 0 -106 38t-43 103z" />
<glyph unicode="&#x2c6;" horiz-adv-x="1013" d="M168 1161l258 287h178l258 -287l-78 -82q-51 33 -142 86.5t-128 75.5q-35 -20 -125 -74.5t-143 -87.5z" />
<glyph unicode="&#x2dc;" horiz-adv-x="1013" d="M154 1171q4 94 38.5 156t86 82.5t106.5 18t109 -24.5l110 -53q51 -20 77 -8t69 71l118 -4q-4 -96 -42 -158.5t-91 -84t-109.5 -19.5t-107.5 24l-112 54q-47 23 -75 10.5t-67 -68.5z" />
<glyph unicode="&#x2000;" horiz-adv-x="879" />
<glyph unicode="&#x2001;" horiz-adv-x="1759" />
<glyph unicode="&#x2002;" horiz-adv-x="879" />
<glyph unicode="&#x2003;" horiz-adv-x="1759" />
<glyph unicode="&#x2004;" horiz-adv-x="586" />
<glyph unicode="&#x2005;" horiz-adv-x="439" />
<glyph unicode="&#x2006;" horiz-adv-x="293" />
<glyph unicode="&#x2007;" horiz-adv-x="293" />
<glyph unicode="&#x2008;" horiz-adv-x="219" />
<glyph unicode="&#x2009;" horiz-adv-x="351" />
<glyph unicode="&#x200a;" horiz-adv-x="97" />
<glyph unicode="&#x2010;" horiz-adv-x="837" d="M117 422v287h604v-287h-604z" />
<glyph unicode="&#x2011;" horiz-adv-x="837" d="M117 422v287h604v-287h-604z" />
<glyph unicode="&#x2012;" horiz-adv-x="837" d="M117 422v287h604v-287h-604z" />
<glyph unicode="&#x2013;" horiz-adv-x="1021" d="M117 434v242h788v-242h-788z" />
<glyph unicode="&#x2014;" horiz-adv-x="1902" d="M117 434v242h1669v-242h-1669z" />
<glyph unicode="&#x2018;" horiz-adv-x="575" d="M104 924q0 113 84.5 231.5t227.5 200.5l76 -94q-111 -88 -146 -179q57 -14 93 -62t36 -112q0 -80 -51 -133t-133 -53t-134.5 57.5t-52.5 143.5z" />
<glyph unicode="&#x2019;" horiz-adv-x="575" d="M90 817q111 88 146 178q-59 16 -94.5 64.5t-35.5 111.5q0 80 51.5 132.5t133.5 52.5t134 -57.5t52 -143.5q0 -113 -84 -231.5t-227 -200.5z" />
<glyph unicode="&#x201a;" horiz-adv-x="575" d="M90 -166q111 88 146 178q-59 16 -94.5 64.5t-35.5 111.5q0 80 51.5 132.5t133.5 52.5t134 -57.5t52 -143.5q0 -113 -84 -231.5t-227 -200.5z" />
<glyph unicode="&#x201c;" horiz-adv-x="1026" d="M104 924q0 113 84.5 231.5t227.5 200.5l76 -94q-111 -88 -146 -179q57 -14 93 -62t36 -112q0 -80 -51 -133t-133 -53t-134.5 57.5t-52.5 143.5zM555 924q0 113 84 231.5t227 200.5l76 -94q-111 -88 -145 -179q57 -14 93 -62t36 -112q0 -80 -51.5 -133t-133.5 -53 t-134 57.5t-52 143.5z" />
<glyph unicode="&#x201d;" horiz-adv-x="1026" d="M90 817q111 88 146 178q-59 16 -94.5 64.5t-35.5 111.5q0 80 51.5 132.5t133.5 52.5t134 -57.5t52 -143.5q0 -113 -84 -231.5t-227 -200.5zM541 817q111 88 145 178q-57 14 -93 62.5t-36 111.5q0 80 51 133.5t133 53.5t134.5 -57.5t52.5 -143.5q0 -113 -84.5 -231.5 t-227.5 -200.5z" />
<glyph unicode="&#x201e;" horiz-adv-x="1026" d="M90 -166q111 88 146 178q-59 16 -94.5 64.5t-35.5 111.5q0 80 51.5 132.5t133.5 52.5t134 -57.5t52 -143.5q0 -113 -84 -231.5t-227 -200.5zM541 -166q111 88 145 178q-57 14 -93 62.5t-36 111.5q0 80 51 133.5t133 53.5t134.5 -57.5t52.5 -143.5q0 -113 -84.5 -231.5 t-227.5 -200.5z" />
<glyph unicode="&#x2022;" horiz-adv-x="710" d="M111 550.5q0 106.5 68.5 176.5t177 70t177 -70t68.5 -176.5t-68.5 -176t-177 -69.5t-177 69.5t-68.5 176z" />
<glyph unicode="&#x2026;" horiz-adv-x="1687" d="M100 172q0 80 51.5 132t133.5 52t133 -52t51 -132t-51 -133t-133 -53t-133.5 53t-51.5 133zM659 172q0 80 51.5 132t133.5 52t133 -52t51 -132t-51 -133t-133 -53t-133.5 53t-51.5 133zM1219 172q0 80 51 132t133 52t133 -52t51 -132t-51 -133t-133 -53t-133 53t-51 133z " />
<glyph unicode="&#x202f;" horiz-adv-x="351" />
<glyph unicode="&#x2039;" horiz-adv-x="780" d="M66 524l454 441l164 -162l-207 -209q-35 -35 -82 -72q37 -27 84 -69l205 -211l-162 -156z" />
<glyph unicode="&#x203a;" horiz-adv-x="780" d="M98 242l203 211q41 39 84 71q-57 45 -82 70l-205 209l162 162l455 -441l-457 -438z" />
<glyph unicode="&#x205f;" horiz-adv-x="439" />
<glyph unicode="&#x20ac;" horiz-adv-x="1150" d="M47 375v127h109l-2 55v16h-107v127h119q37 209 171 325t325 116q211 0 415 -111l-90 -211q-150 66 -278 66q-172 0 -220 -185h402l-37 -127h-379v-16v-57h354l-36 -125h-293q49 -137 205 -137q160 0 305 94l104 -199q-104 -82 -207.5 -116.5t-249.5 -34.5q-176 0 -309 98 t-176 295h-125z" />
<glyph unicode="&#x2122;" horiz-adv-x="1605" d="M31 1079v170h610v-170h-207v-438h-192v438h-211zM690 641l27 608h209l149 -342q4 -10 10.5 -27.5t6.5 -19.5q2 4 6 21.5t8 25.5l151 342h207l29 -608h-190l-9 328l-133 -328h-141l-133 326l-8 -326h-189z" />
<glyph unicode="&#x25fc;" horiz-adv-x="993" d="M0 0v993h993v-993h-993z" />
<glyph unicode="&#xfb03;" horiz-adv-x="2002" d="M23 721v268h129v31q0 197 96 288t301 91q106 0 213 -23l-23 -223q-94 4 -129 4q-74 0 -102.5 -35t-28.5 -102v-31h387v31q0 199 93.5 289t297.5 90q78 0 205 -25l-24 -221q-115 4 -119 4q-74 0 -99.5 -33.5t-25.5 -103.5v-31h692v-989h-327v721h-365v-721h-328v721h-387 v-721h-327v721h-129zM1542 1278q0 80 53.5 123t131 43t131 -43t53.5 -123t-53.5 -124t-131 -44t-131 44t-53.5 124z" />
<glyph unicode="&#xfb04;" horiz-adv-x="1968" d="M23 721v266h129v33q0 197 96 288t301 91q106 0 213 -23l-23 -223q-47 2 -129 2q-74 0 -102.5 -35t-28.5 -102v-31h373v33q0 199 93 289t298 90q86 0 297 -45v28h328v-1382h-328v1149q-100 6 -235 6q-74 0 -99.5 -32.5t-25.5 -102.5v-33h245v-266h-245v-721h-328v721h-373 v-721h-327v721h-129z" />
</font>
</defs>
</svg>
